<?xml version="1.0" encoding="utf-8"?>
<!-- Generator: Adobe Illustrator 19.2.1, SVG Export Plug-In . SVG Version: 6.00 Build 0)  -->
<svg version="1.1" id="Layer_1" xmlns="http://www.w3.org/2000/svg" xmlns:xlink="http://www.w3.org/1999/xlink" x="0px" y="0px"
	 viewBox="0 0 50 40.3" style="enable-background:new 0 0 50 40.3;" xml:space="preserve">
<style type="text/css">
	.st0{fill:#FFFFFF;}
</style>
<path d="M47.1,40.3H2.9c-0.9,0-1.6-0.7-1.6-1.6L0,8c0-0.9,0.7-1.6,1.6-1.6h46.8C49.3,6.4,50,7.1,50,8l-1.3,30.7
	C48.7,39.6,48,40.3,47.1,40.3z"/>
<path d="M1.7,5.9c0,0,0-1,0-1.3c0-0.6,0.5-1.4,1.7-1.4c0.9,0,1.4-1.2,1.4-1.6S4.8,0,6,0s13.5,0,14.4,0c0.9,0,1.4,0.8,1.4,1.5
	s0.2,1.8,1.2,1.8s22.2,0,23.4,0s2.1,0.6,2.1,2v0.8L1.7,5.9z"/>
<polygon class="st0" points="27.2,23.2 27.2,17.8 23,17.8 23,23.2 19.2,23.2 25.1,30.9 31,23.2 "/>
<rect x="19.2" y="30.9" class="st0" width="11.8" height="1.5"/>
</svg>
